<?xml version="1.0" standalone="no"?>
<!DOCTYPE svg PUBLIC "-//W3C//DTD SVG 20010904//EN"
 "http://www.w3.org/TR/2001/REC-SVG-20010904/DTD/svg10.dtd">
<svg version="1.0" xmlns="http://www.w3.org/2000/svg"
 width="159.000000pt" height="159.000000pt" viewBox="0 0 159.000000 159.000000"
 preserveAspectRatio="xMidYMid meet">
<metadata>
Created by potrace 1.11, written by Peter Selinger 2001-2013
</metadata>
<g transform="translate(0.000000,159.000000) scale(0.100000,-0.100000)"
fill="#000000" stroke="none">
<path d="M125 1558 c-32 -17 -76 -61 -91 -90 -12 -22 -14 -136 -14 -673 0
-458 3 -653 11 -668 17 -32 60 -77 91 -93 40 -21 1306 -21 1346 0 31 16 74 61
91 93 8 15 11 210 11 668 0 458 -3 653 -11 668 -17 32 -60 77 -91 93 -22 12
-136 14 -675 14 -453 -1 -654 -4 -668 -12z m1295 -763 l0 -625 -625 0 -625 0
0 625 0 625 625 0 625 0 0 -625z"/>
<path d="M265 1133 c3 -10 46 -91 96 -180 l89 -162 0 -106 0 -105 65 0 65 0 0
104 0 104 95 177 c52 97 95 178 95 181 0 2 -33 4 -74 4 l-74 0 -20 -47 c-11
-27 -35 -78 -52 -115 l-32 -68 -56 115 -56 115 -74 0 c-66 0 -73 -2 -67 -17z"/>
<path d="M820 865 l0 -285 60 0 60 0 2 186 3 185 106 -183 105 -183 67 -3 67
-3 0 286 0 285 -60 0 -60 0 0 -187 0 -188 -107 188 -107 187 -68 0 -68 0 0
-285z"/>
</g>
</svg>
